{"title":"De Johnsons 1992 DVDrip Dutch Klam","uid":7043653,"size":1800333688,"categoryP":"video","categoryS":"movies","magnet":"?xt=urn:btih:b3b1f428bce9aae45adf1b4d7c5cd8f9b337f2b1&amp;dn=De+Johnsons+1992+DVDrip+Dutch+Klam&amp;tr=udp%3A%2F%2Ftracker.openbittorrent.com%3A80&amp;tr=udp%3A%2F%2Fopen.demonii.com%3A1337&amp;tr=udp%3A%2F%2Ftracker.coppersurfer.tk%3A6969&amp;tr=udp%3A%2F%2Fexodus.desync.com%3A6969","seeders":1,"leechers":0,"uploader":"Klambake","files":-1,"time":1329650247,"description":"With: EsmÃƒÂ©e de la BretonniÃƒÂ¨re, Monique van de Ven and Kenneth Herdigein\n\nDeze horrorfilm van Hollandse bodem verbindt een legende over zeven psychopatische broers met de herhaaldelijke nachtmerries van een veertienjarig meisje (De la BretoniÃƒÂ¨re). Het script voor dit griezelverhaal vol occulte elementen en puberangsten werd geschreven door Leon de Winter, naar een origineel scenario van Rocco Simonelli.\n\nAccording to an ancient Indian tale a giant monster embryo residing in a crystal vase is predetermined to fertilize a blue-eyed woman...\n\n------------------------ Dutch Friends ------------------------\n---------------------------------------------------------------\n- Bezoek ook eens mijn vrienden op: &lt;a href=&quot; http://www.Film-Test.nl&quot; rel=&quot;nofollow&quot; target=&quot;_NEW&quot;&gt; http://www.Film-Test.nl&lt;/a&gt; --\n----- voor mijn Nederlandse Sync. ondertitels ---- en meer ----\n------- http://www.Film-Test.nl ---- voor Films en meer -------\n---------------------------------------------------------------\n\nGeneral:\n\nComplete name                    : De Johnsons\\De Johnsons.avi\nFormat                           : AVI\nFormat/Info                      : Audio Video Interleave\nFile size                        : 1.68 GiB\nDuration                         : 1h 39mn\nOverall bit rate                 : 2 418 Kbps\n\nVideo:\n\nFormat                           : MPEG-4 Visual\nFormat profile                   : Simple@L3\nFormat settings, BVOP            : No\nFormat settings, QPel            : No\nFormat settings, GMC             : No warppoints\nFormat settings, Matrix          : Default (H.263)\nCodec ID                         : XVID\nCodec ID/Hint                    : XviD\nDuration                         : 1h 39mn\nBit rate                         : 1 959 Kbps\nWidth                            : 652 pixels\nHeight                           : 352 pixels\nDisplay aspect ratio             : 1.852\nFrame rate                       : 25.000 fps\nColor space                      : YUV\nChroma subsampling               : 4:2:0\nBit depth                        : 8 bits\nScan type                        : Progressive\nCompression mode                 : Lossy\nBits/(Pixel*Frame)               : 0.341\nStream size                      : 1.36 GiB (81%)\nWriting library                  : XviD 1.1.2 (UTC 2006-11-01)\n\nAudio:\n\nFormat                           : AC-3\nFormat/Info                      : Audio Coding 3\nMode extension                   : CM (complete main)\nCodec ID                         : 2000\nDuration                         : 1h 39mn\nBit rate mode                    : Constant\nBit rate                         : 448 Kbps\nChannel(s)                       : 6 channels\nChannel positions                : Front: L C R, Side: L R, LFE\nSampling rate                    : 48.0 KHz\nBit depth                        : 16 bits\nCompression mode                 : Lossy\nStream size                      : 318 MiB (19%)\nAlignment                        : Aligned on interleaves\nInterleave, duration             : 32 ms (0.80 video frame)\nInterleave, preload duration     : 64 ms\n\n","torrent":{"xt":"urn:btih:b3b1f428bce9aae45adf1b4d7c5cd8f9b337f2b1","amp;dn":"De+Johnsons+1992+DVDrip+Dutch+Klam","amp;tr":["udp%3A%2F%2Ftracker.openbittorrent.com%3A80","udp%3A%2F%2Fopen.demonii.com%3A1337","udp%3A%2F%2Ftracker.coppersurfer.tk%3A6969","udp%3A%2F%2Fexodus.desync.com%3A6969"],"infoHash":"b3b1f428bce9aae45adf1b4d7c5cd8f9b337f2b1","infoHashBuffer":{"type":"Buffer","data":[179,177,244,40,188,233,170,228,90,223,27,77,124,92,216,249,179,55,242,177]},"announce":[],"urlList":[]}}